# xmcd CD database file
#
# Track frame offsets:
#	150
#	20616
#	59420
#	87604
#	120964
#	137818
#	171874
#	199449
#	226762
#	240487
#
# Disc length: 3598 seconds
#
# Revision: 0
# Processed by: cddbd v1.5.1PL0 Copyright (c) Steve Scherf et al.
# Submitted via: CDex 1.51
#
DISCID=850e0c0a
DTITLE=Máximo Rodriguez Quinteto - Quién dijo que 20 años no es nada
DYEAR=2000
DGENRE=Jazz
TTITLE0=Quién dijo que 20 años no es nada
TTITLE1=Indian bahiana
TTITLE2=Esto and esto
TTITLE3=La sonrisa de Anandí
TTITLE4=Cómplices
TTITLE5=El huayno del borrachito
TTITLE6=Aire nuevo
TTITLE7=Hueso loco
TTITLE8=Los mareados
TTITLE9=Candome de la Galín
EXTD=YEAR: 2000
EXTT0=
EXTT1=
EXTT2=
EXTT3=
EXTT4=
EXTT5=
EXTT6=
EXTT7=
EXTT8=
EXTT9=
PLAYORDER=
